<?xml version="1.0" standalone="no"?>
<!DOCTYPE svg PUBLIC "-//W3C//DTD SVG 20010904//EN"
        "http://www.w3.org/TR/2001/REC-SVG-20010904/DTD/svg10.dtd">
<svg version="1.0" xmlns="http://www.w3.org/2000/svg"
     width="720.000000pt" height="720.000000pt" viewBox="0 0 720.000000 720.000000"
     preserveAspectRatio="xMidYMid meet">
    <metadata>
        Created by potrace 1.16, written by Peter Selinger 2001-2019
    </metadata>
    <g transform="translate(0.000000,720.000000) scale(0.100000,-0.100000)"
       fill="#000000" stroke="none">
        <path d="M1550 6474 c-233 -62 -372 -215 -441 -483 -49 -190 -65 -517 -35
-676 39 -198 92 -311 355 -759 230 -391 264 -454 295 -548 48 -142 30 -292
-60 -514 -106 -261 -124 -307 -147 -384 -70 -233 -118 -467 -192 -950 -39
-258 -63 -384 -80 -430 -30 -78 -75 -265 -110 -453 -14 -76 -30 -148 -36 -159
-16 -30 -5 -115 18 -146 11 -15 36 -36 55 -47 19 -11 61 -37 93 -59 81 -54
155 -78 242 -79 120 -1 221 61 276 168 31 62 47 145 62 320 34 409 129 763
291 1088 128 256 173 291 404 317 52 6 282 36 510 67 228 30 429 55 447 56 19
1 41 -7 54 -19 30 -27 59 -88 59 -124 0 -17 6 -43 14 -58 8 -15 24 -94 35
-175 29 -198 72 -343 198 -657 128 -322 161 -416 219 -635 78 -290 133 -406
249 -521 120 -119 250 -170 410 -162 178 9 317 119 332 262 8 76 -15 134 -74
186 -45 39 -66 48 -223 90 -65 18 -123 81 -152 167 -22 68 -22 72 -28 818 -3
413 -2 793 2 845 12 162 71 284 192 397 84 80 151 122 366 233 270 140 433
244 705 449 333 251 522 499 589 771 72 298 14 584 -158 768 -70 74 -92 87
-167 96 -36 5 -88 24 -153 56 -83 43 -106 50 -154 50 -100 -1 -178 -54 -202
-138 -13 -49 -13 -59 5 -118 22 -76 69 -122 185 -184 122 -65 202 -139 244
-224 45 -94 45 -121 -2 -191 -95 -141 -281 -324 -443 -435 -176 -121 -352
-198 -704 -307 -279 -86 -349 -88 -401 -9 -14 22 -14 27 1 55 8 17 118 134
244 259 126 125 256 264 289 310 118 160 165 290 165 452 -1 336 -241 623
-618 739 -230 70 -578 101 -765 67 -158 -29 -255 -88 -510 -307 -384 -330
-674 -618 -950 -944 -133 -157 -210 -235 -233 -235 -25 0 -75 64 -219 280
-405 607 -497 914 -355 1184 44 86 131 168 204 196 51 19 70 21 153 16 52 -4
133 -9 180 -12 112 -8 160 6 219 61 41 39 46 48 46 88 0 24 -7 52 -15 62 -30
36 -261 129 -415 166 -98 23 -283 25 -365 3z m2384 -1303 c49 -50 59 -65 60
-97 1 -32 -3 -39 -34 -57 -76 -44 -135 -40 -207 12 -31 23 -43 39 -52 77 -14
56 -1 102 33 109 11 2 30 6 41 8 11 3 38 5 60 6 36 1 46 -5 99 -58z m917 -1
c55 -15 65 -32 50 -83 -18 -60 -45 -84 -121 -108 -70 -23 -119 -21 -155 5 -26
19 -27 94 -1 110 11 6 30 22 42 36 21 23 83 47 129 49 11 0 36 -4 56 -9z"/>
    </g>
</svg>
